<svg width="30" height="21" viewBox="0 0 30 21" fill="none" xmlns="http://www.w3.org/2000/svg">
<path d="M28.7823 0.00012207H23.096C23.0271 4.39418 22.5332 7.91532 20.6779 10.6722C18.3689 14.0956 14.1758 15.7611 7.85771 15.7611H0V19.5121C0 20.1841 0.545918 20.7299 1.21787 20.7299H28.7824C29.4544 20.7299 30.0001 20.1841 30.0001 19.5121V1.21793C30 0.545981 29.4543 0.00012207 28.7823 0.00012207ZM1.70355 18.7487C2.06859 18.7487 2.36432 19.0441 2.36432 19.4095C2.36432 19.7743 2.06865 20.0703 1.70355 20.0703C1.33875 20.0703 1.04273 19.7744 1.04273 19.4095C1.04279 19.0442 1.33875 18.7487 1.70355 18.7487ZM28.0304 14.968C28.0448 15.0754 28.0533 15.1935 28.0573 15.3223C28.0607 15.4509 28.0625 15.5927 28.0625 15.7478C28.0625 15.9028 28.0607 16.0447 28.0573 16.1731C28.0534 16.302 28.0449 16.4201 28.0304 16.5274C28.0162 16.635 27.9927 16.7339 27.9591 16.8236C27.9257 16.9133 27.8808 16.9989 27.8245 17.0799C27.6904 17.2703 27.532 17.4097 27.3486 17.4974C27.1655 17.5855 26.9451 17.6297 26.6878 17.6297H25.3291V13.8657H26.6878C26.945 13.8657 27.1655 13.9099 27.3486 13.9981C27.532 14.0859 27.6904 14.2253 27.8245 14.4155C27.8808 14.4966 27.9256 14.5822 27.9591 14.6719C27.9927 14.7618 28.0163 14.8607 28.0304 14.968ZM27.776 19.4095C27.776 19.0442 28.0716 18.7487 28.4367 18.7487C28.8018 18.7487 29.0975 19.0441 29.0975 19.4095C29.0975 19.7743 28.8018 20.0703 28.4367 20.0703C28.0717 20.0703 27.776 19.7743 27.776 19.4095ZM28.4367 2.17975C28.0717 2.17975 27.776 1.88385 27.776 1.51893C27.776 1.15389 28.0716 0.858169 28.4367 0.858169C28.8018 0.858169 29.0975 1.15383 29.0975 1.51893C29.0975 1.88379 28.8018 2.17975 28.4367 2.17975ZM24.3407 14.4155C24.397 14.4966 24.4418 14.5822 24.4753 14.6719C24.5089 14.7618 24.5327 14.8607 24.5466 14.968C24.5608 15.0754 24.5695 15.1935 24.5734 15.3223C24.5769 15.4509 24.5787 15.5927 24.5787 15.7478C24.5787 15.9028 24.5769 16.0447 24.5734 16.1731C24.5695 16.302 24.5609 16.4201 24.5466 16.5274C24.5327 16.635 24.5088 16.7339 24.4753 16.8236C24.4419 16.9133 24.397 16.9989 24.3407 17.0799C24.2065 17.2703 24.0481 17.4097 23.8648 17.4974C23.6817 17.5855 23.4613 17.6297 23.204 17.6297H21.8453V13.8657H23.204C23.4612 13.8657 23.6817 13.9099 23.8648 13.9981C24.0482 14.0859 24.2065 14.2253 24.3407 14.4155ZM21.0571 14.2734L20.5927 14.7328C20.4764 14.6199 20.3496 14.5487 20.2119 14.5187C20.0747 14.4888 19.9441 14.4737 19.8209 14.4737C19.6234 14.4737 19.478 14.5204 19.3846 14.6139C19.2912 14.7073 19.2444 14.819 19.2444 14.9494C19.2444 14.9989 19.2526 15.0465 19.2684 15.0923C19.2844 15.1381 19.3114 15.1804 19.3503 15.2191C19.389 15.2544 19.4359 15.2843 19.4903 15.309C19.5451 15.3338 19.6126 15.3511 19.6941 15.3619L20.1431 15.4306C20.3162 15.4553 20.4585 15.4905 20.5716 15.5363C20.6842 15.5823 20.781 15.6457 20.8622 15.7267C20.9643 15.8182 21.0383 15.9311 21.0843 16.0648C21.1301 16.1989 21.1528 16.3504 21.1528 16.5196C21.1528 16.7029 21.1175 16.8649 21.0475 17.0057C20.9767 17.1469 20.8788 17.2658 20.754 17.3626C20.6288 17.4597 20.4807 17.5335 20.3095 17.5849C20.1388 17.6358 19.9546 17.6613 19.7572 17.6613C19.4721 17.6613 19.2173 17.6251 18.9937 17.5531C18.7788 17.4839 18.5842 17.3589 18.4069 17.1846C18.3993 17.1765 18.3906 17.1722 18.3833 17.1642L18.8585 16.6887C18.9786 16.8084 19.1157 16.8914 19.2711 16.9371C19.4259 16.9829 19.5898 17.0057 19.7627 17.0057C19.9848 17.0057 20.1521 16.9655 20.2649 16.8844C20.3775 16.8035 20.4338 16.6869 20.4338 16.5356C20.4338 16.4052 20.3951 16.301 20.3177 16.2237C20.2791 16.1882 20.2365 16.1619 20.1907 16.1442C20.1447 16.1266 20.0747 16.1106 19.9792 16.0966L19.5299 16.028C19.361 16.0032 19.2182 15.9653 19.1019 15.9142C18.9854 15.8631 18.8852 15.797 18.8004 15.716C18.6206 15.5436 18.531 15.2967 18.531 14.9757C18.531 14.8066 18.5608 14.6528 18.6205 14.5134C18.6807 14.3741 18.7668 14.2541 18.8798 14.1539C18.9927 14.0534 19.1298 13.9751 19.2921 13.9186C19.4541 13.8625 19.6375 13.8341 19.8418 13.8341C20.1025 13.8341 20.3298 13.8675 20.5237 13.9346C20.7079 13.9982 20.8761 14.106 21.0318 14.2521C21.04 14.2604 21.0491 14.2651 21.0571 14.2734Z" fill="#374149"/>
</svg>
