<svg width="30" height="24" viewBox="0 0 30 24" fill="none" xmlns="http://www.w3.org/2000/svg">
<path d="M29.8519 14.2408C29.846 14.229 24.9848 1.37033 24.9671 1.34079C24.5359 0.513873 23.6854 0 22.7522 0H7.25328C6.32004 0 5.4695 0.513873 5.03831 1.34079C5.0206 1.37033 0.153571 14.229 0.153571 14.2408C0.0590658 14.5066 0 14.796 0 15.0913V20.7853C0 22.1615 1.12225 23.2837 2.49848 23.2837H27.501C28.8773 23.2837 29.9995 22.1615 29.9995 20.7853V15.0913C30.0054 14.7901 29.9523 14.5066 29.8519 14.2408ZM4.06373 8.59998H6.47952C6.94023 8.59998 7.31235 8.22787 7.31235 7.76716C7.31235 7.30644 6.94023 6.93433 6.47952 6.93433H4.69573L5.32774 5.26276H8.98391C9.44463 5.26276 9.81674 4.89065 9.81674 4.42994C9.81674 3.96922 9.44463 3.59711 8.98391 3.59711H5.95974L6.53268 2.07321C6.68034 1.81923 6.95205 1.66566 7.25328 1.66566H22.7581C23.0534 1.66566 23.3251 1.81923 23.4787 2.07912L27.4538 12.5928H2.55755L4.06373 8.59998ZM27.507 21.6181H2.49848C2.03777 21.6181 1.66566 21.246 1.66566 20.7853V15.0913C1.66566 14.6306 2.03777 14.2585 2.49848 14.2585H27.501C27.9618 14.2585 28.3339 14.6306 28.3339 15.0913V20.7853H28.3398C28.3398 21.246 27.9677 21.6181 27.507 21.6181Z" fill="black"/>
</svg>
