<svg width="30" height="30" viewBox="0 0 30 30" fill="none" xmlns="http://www.w3.org/2000/svg">
<path d="M15.7725 14.257C15.7725 14.0941 15.7233 13.965 15.6219 13.8636C15.5205 13.7652 15.3822 13.7162 15.2039 13.7162H14.4818V14.7947H15.2039C15.3822 14.7947 15.5204 14.7454 15.6219 14.6471C15.7233 14.5518 15.7725 14.4198 15.7725 14.257Z" fill="#374149"/>
<path d="M21.7584 5.224H8.24181C6.54488 5.224 5.16904 6.59984 5.16904 8.29654V21.7033C5.16904 23.4005 6.54488 24.7759 8.24181 24.7759H21.7584C23.4554 24.7759 24.831 23.4005 24.831 21.7033V8.29654C24.831 6.59984 23.4554 5.224 21.7584 5.224ZM12.7998 14.331H11.7178L11.6936 14.2328C11.6565 14.0856 11.5913 13.9634 11.4997 13.8696C11.415 13.784 11.2926 13.7423 11.1255 13.7423C11.0316 13.7423 10.9481 13.7581 10.8779 13.7892C10.808 13.8203 10.7494 13.8627 10.7037 13.9144C10.6723 13.9486 10.648 13.9856 10.6275 14.0294C10.6073 14.0721 10.5904 14.1326 10.5764 14.2077C10.5615 14.2886 10.5508 14.391 10.5437 14.515C10.5357 14.6435 10.5323 14.8051 10.5323 14.9998C10.5323 15.1948 10.5357 15.3567 10.5437 15.4846C10.5508 15.6089 10.5616 15.7117 10.5764 15.7927C10.5904 15.8676 10.6073 15.9278 10.6279 15.9713C10.648 16.0143 10.6723 16.0514 10.7023 16.0844C10.7499 16.1384 10.8069 16.1789 10.8781 16.2107C10.9481 16.2418 11.0317 16.2578 11.1255 16.2578C11.2933 16.2578 11.4167 16.2158 11.5034 16.1295C11.5965 16.0358 11.6625 15.9143 11.6991 15.7674L11.7233 15.6692H12.6516L12.8004 15.6708L12.7736 15.8214C12.691 16.2856 12.4976 16.6423 12.1998 16.8813C11.9036 17.1186 11.5422 17.2389 11.1254 17.2389C10.868 17.2389 10.6395 17.1975 10.4456 17.1148C10.2533 17.0336 10.0769 16.9161 9.92216 16.7655C9.80544 16.6488 9.71591 16.5275 9.65462 16.4036C9.59328 16.2819 9.54816 16.1457 9.52068 16.0002C9.4946 15.8615 9.47837 15.7113 9.47216 15.5412C9.46642 15.3803 9.46325 15.2 9.46325 15C9.46325 14.8004 9.46642 14.62 9.47216 14.4594C9.47837 14.2914 9.49484 14.1366 9.52115 13.9998C9.54816 13.8549 9.59322 13.7187 9.65486 13.596C9.71591 13.4729 9.80544 13.3518 9.92058 13.2362C10.0776 13.084 10.2538 12.9663 10.4456 12.8851C10.6391 12.803 10.8679 12.7613 11.1254 12.7613C11.5422 12.7613 11.9036 12.8817 12.1998 13.1188C12.4976 13.358 12.691 13.7148 12.7736 14.179L12.7981 14.3161L12.7998 14.331ZM7.15466 11.8854C7.15285 11.8858 7.15079 11.8861 7.14892 11.8865C6.90763 11.9394 6.63968 11.7668 6.63968 11.4777V8.60919C6.63968 7.63736 7.43456 6.84248 8.4064 6.84248H10.7039C11.0616 6.84248 11.2539 7.26289 11.02 7.53347L7.37345 11.7513C7.31099 11.8236 7.23429 11.8666 7.15466 11.8854ZM14.6141 15.609H14.6049V17.0959H13.5908V12.9048H15.2408C15.4592 12.9048 15.6588 12.9417 15.837 13.0094C16.0151 13.0801 16.1657 13.1816 16.2886 13.3044C16.4085 13.4271 16.5038 13.5748 16.5683 13.7374C16.6329 13.9034 16.6668 14.0755 16.6668 14.257C16.6668 14.4383 16.6329 14.6131 16.5683 14.7761C16.5038 14.9421 16.4086 15.0865 16.2886 15.2094C16.1657 15.3352 16.0151 15.4337 15.837 15.5042C15.6588 15.5751 15.4592 15.609 15.2408 15.609H14.618H14.6141V15.609ZM18.471 16.0442C18.5701 16.1474 18.7042 16.1976 18.8809 16.1976C19.0585 16.1976 19.1936 16.1472 19.2942 16.0435C19.3958 15.9391 19.4451 15.7921 19.4451 15.5944V12.9067H20.4556V15.6223C20.4556 15.8494 20.4137 16.0584 20.331 16.2431C20.2491 16.4268 20.1351 16.5869 19.992 16.7182C19.8494 16.8486 19.6814 16.9508 19.4924 17.0224C19.304 17.0938 19.0985 17.13 18.8808 17.13C18.6638 17.13 18.4583 17.0938 18.2699 17.0224C18.0799 16.9505 17.9119 16.8482 17.7703 16.7182C17.6269 16.5869 17.5126 16.4271 17.431 16.2428C17.3484 16.0579 17.3067 15.8489 17.3067 15.6223V12.9067H18.3227V15.5944C18.3229 15.7924 18.3712 15.9396 18.471 16.0442Z" fill="#374149"/>
<path d="M7.06992 3.98367V3.99311H7.24066H9.9863H10.1568V3.82236V2.69941V2.52867H9.9863H9.45714C9.32648 2.52867 9.22048 2.42273 9.22048 2.29201V0.170508V0H9.04974H8.17587H8.00513V0.170508V2.29195C8.00513 2.42268 7.89919 2.52861 7.7687 2.52861H7.24072H7.06997V2.69936V3.82225V3.98314V3.98367H7.06992Z" fill="#374149"/>
<path d="M14.244 3.99311H14.4148V3.82236V2.69941V2.52867H14.244H13.7167C13.586 2.52867 13.4803 2.42273 13.4803 2.29201V0.170508V0H13.3095H12.4353H12.2646V0.170508V2.29195C12.2646 2.42268 12.1588 2.52861 12.0282 2.52861H11.4983H11.3276V2.69936V3.82225V3.99299H11.4983H14.244V3.99311Z" fill="#374149"/>
<path d="M15.5855 3.98367V3.99311H15.756H18.5016H18.6724V3.82236V2.69941V2.52867H18.5016H17.9727C17.8423 2.52867 17.7363 2.42273 17.7363 2.29201V0.170508V0H17.5655H16.6917H16.5209V0.170508V2.29195C16.5209 2.42268 16.415 2.52861 16.2843 2.52861H15.756H15.5855V2.69936V3.82225V3.98314V3.98367H15.5855Z" fill="#374149"/>
<path d="M22.7594 3.99311H22.9301V3.82236V2.69941V2.52867H22.7594H22.2291C22.0984 2.52867 21.9924 2.42273 21.9924 2.29201V0.170508V0H21.8219H20.9513H20.7805V0.170508V2.29195C20.7805 2.42268 20.6746 2.52861 20.5441 2.52861H20.0141H19.8433V2.69936V3.82225V3.99299H20.0141H22.7594V3.99311Z" fill="#374149"/>
<path d="M20.0139 26.0067H19.8431V26.1775V27.3006V27.4713H20.0139H20.543C20.6734 27.4713 20.7794 27.5771 20.7794 27.7078V29.8292V30H20.9502H21.8243H21.9948V29.8293V27.7078C21.9948 27.5771 22.1007 27.4714 22.2314 27.4714H22.7592H22.9196H22.9206H22.9299V27.3006V26.1775V26.0068H22.7592H20.0139V26.0067Z" fill="#374149"/>
<path d="M15.756 26.0067H15.5855V26.1775V27.3006V27.4615V27.4619V27.4713H15.756H16.2833C16.414 27.4713 16.52 27.5771 16.52 27.7078V29.8292V30H16.6905H17.5646H17.7353V29.8293V27.7078C17.7353 27.5771 17.8413 27.4714 17.9718 27.4714H18.5016H18.6621H18.663H18.6724V27.3006V26.1775V26.0068H18.5016H15.756V26.0067Z" fill="#374149"/>
<path d="M11.4983 26.0067H11.3276V26.1775V27.3006V27.4713H11.4983H12.0272C12.1579 27.4713 12.2637 27.5771 12.2637 27.7078V29.8292V30H12.4344H13.3085H13.4793V29.8293V27.7078C13.4793 27.5771 13.585 27.4714 13.7157 27.4714H14.2439H14.4043H14.4052H14.4146V27.3006V26.1775V26.0068H14.2439H11.4983V26.0067Z" fill="#374149"/>
<path d="M7.24066 26.0067H7.06992V26.1775V27.3006V27.4615V27.4619V27.4713H7.24066H7.77093C7.90159 27.4713 8.00759 27.5771 8.00759 27.7078V29.8292V29.9901V29.9906V30H8.17833H9.04874H9.21949V29.8293V27.7078C9.21949 27.5771 9.32542 27.4714 9.45591 27.4714H9.98619H10.1464H10.1475H10.1567V27.3006V26.1775V26.0068H9.98619H7.24066V26.0067Z" fill="#374149"/>
<path d="M29.8292 8.00487H27.708C27.5773 8.00487 27.4714 7.89916 27.4714 7.7685V7.24069V7.06995H27.3009H26.1775H26.007V7.24069V9.98633V10.1571H26.1775H27.3009H27.4714V9.98633V9.45694C27.4714 9.32627 27.5773 9.22051 27.708 9.22051H29.8292H29.9901H29.9906H30V9.04977V8.17567V8.00493H29.8292V8.00487Z" fill="#374149"/>
<path d="M27.708 12.2647C27.5773 12.2647 27.4713 12.1587 27.4713 12.028V11.4984V11.3276H27.3008H26.1775H26.0168H26.0162H26.007V11.4984V14.2438V14.4145H26.1775H27.3008H27.4713V14.2438V13.7167C27.4713 13.586 27.5773 13.48 27.708 13.48H29.8292H30V13.3093V12.4354V12.2646H29.8293H27.708V12.2647Z" fill="#374149"/>
<path d="M27.708 16.521C27.5773 16.521 27.4713 16.415 27.4713 16.2843V15.7561V15.5853H27.3008H26.1775H26.007V15.7561V18.5017V18.6725H26.1775H27.3008H27.4713V18.5017V17.9728C27.4713 17.8421 27.5773 17.7361 27.708 17.7361H29.8292H29.9901L29.9906 17.7364V17.7361H30V17.5656V16.6918V16.521H29.8293H27.708V16.521Z" fill="#374149"/>
<path d="M27.708 20.7805C27.5773 20.7805 27.4713 20.6748 27.4713 20.544V20.014V19.8433H27.3008H26.1775H26.007V20.014V22.7594V22.9299H26.1775H27.3008H27.4713V22.7594V22.2291C27.4713 22.0985 27.5773 21.9925 27.708 21.9925H29.8292H30V21.8217V20.9513V20.7806H29.8293H27.708V20.7805Z" fill="#374149"/>
<path d="M2.69941 19.8431H2.52867V20.0139V20.5428C2.52867 20.6735 2.42273 20.7795 2.29201 20.7795H0.170742H0V20.9502V21.8241V21.9948H0.170742H2.29195C2.42268 21.9948 2.52861 22.1008 2.52861 22.2314V22.7592V22.9297H2.69936H3.82248H3.99322V22.7592V20.0139V19.8431H3.82248H2.69941Z" fill="#374149"/>
<path d="M2.69941 15.5852H2.52867V15.7559V16.2833C2.52867 16.414 2.42273 16.5197 2.29201 16.5197H0.170742H0V16.6905V17.5646V17.7353H0.170742H2.29195C2.42268 17.7353 2.52861 17.8411 2.52861 17.9717V18.5016V18.6723H2.69936H3.82248H3.99322V18.5016V15.7559V15.5852H3.82248H2.69941Z" fill="#374149"/>
<path d="M2.69941 11.3276H2.53852H2.53811H2.52867V11.4983V12.0272C2.52867 12.1579 2.42273 12.2637 2.29201 12.2637H0.170742H0V12.4344V13.3083V13.479H0.170742H2.29195C2.42268 13.479 2.52861 13.5848 2.52861 13.7154V14.2437V14.4144H2.69936H3.82248H3.99322V14.2437V11.4983V11.3275H3.82248H2.69941V11.3276Z" fill="#374149"/>
<path d="M2.69941 7.06994H2.52867V7.24068V7.77096C2.52867 7.90162 2.42273 8.00738 2.29201 8.00738H0.170742H0V8.17812V9.04877V9.21951H0.170742H2.29195C2.42268 9.21951 2.52861 9.32521 2.52861 9.45611V9.98621V10.157H2.69936H3.82248H3.99322V9.98621V7.24057V7.06982H3.82248H2.69941V7.06994Z" fill="#374149"/>
</svg>
