<svg width="25" height="25" viewBox="0 0 25 25" fill="none" xmlns="http://www.w3.org/2000/svg">
<path d="M24.9167 11.0939C24.2747 5.32876 19.6712 0.725537 13.9061 0.0835449C13.4437 0.0257324 12.9751 0 12.5 0C12.0249 0 11.5562 0.0257324 11.0941 0.0835449C5.32227 0.725537 0.725537 5.32876 0.0770508 11.0939C0.0257324 11.5563 0 12.0249 0 12.5C0 12.9751 0.0257324 13.4438 0.0770508 13.9059C0.725537 19.6777 5.32227 24.2747 11.0941 24.9229C11.5562 24.9743 12.0249 25 12.5 25C12.9751 25 13.4437 24.9743 13.9061 24.9229C19.6712 24.2747 24.2747 19.6777 24.9167 13.9059C24.9745 13.4438 25 12.9751 25 12.5C25 12.0249 24.9745 11.5563 24.9167 11.0939ZM21.8138 9.77744C21.9099 9.8375 22.0064 9.89741 22.0981 9.95767C22.2729 10.6 22.3793 11.2674 22.4147 11.9585C22.4155 11.9791 22.418 11.9993 22.4186 12.0199H19.289L18.8495 12.0188C18.8495 12.0188 18.8495 12.0186 18.8495 12.0184C18.811 10.6638 18.6184 9.35425 18.3166 8.11499C18.4985 8.17852 18.6773 8.24434 18.853 8.31182C18.8602 8.31465 18.8677 8.31738 18.8751 8.32021C19.2197 8.45312 19.5516 8.59336 19.8707 8.73848C19.8866 8.74575 19.9024 8.75259 19.9182 8.75986C20.216 8.89643 20.5007 9.03774 20.7742 9.18159C20.8131 9.202 20.8524 9.22222 20.891 9.24302C21.1299 9.371 21.3573 9.50112 21.5757 9.63213C21.6559 9.68018 21.7354 9.72842 21.8138 9.77744ZM22.0981 15.0488C21.9818 15.125 21.8607 15.2016 21.7371 15.2776C21.7125 15.2927 21.6877 15.3078 21.6631 15.3227C21.4184 15.4714 21.1605 15.6192 20.8895 15.7644C20.8431 15.789 20.796 15.8132 20.7493 15.8376C20.5174 15.9591 20.2763 16.0783 20.0268 16.1949C19.8383 16.282 19.6495 16.3686 19.4565 16.4497C19.3701 16.4865 19.2816 16.522 19.1935 16.5578C18.9049 16.6738 18.6137 16.7855 18.3178 16.8862C18.6188 15.6489 18.8109 14.335 18.8496 12.9828H22.2696L22.4189 12.983C22.3868 13.6954 22.2778 14.3881 22.0981 15.0488ZM17.5105 21.0604C17.1858 21.248 16.853 21.4239 16.5047 21.575C17.0805 20.5307 17.5987 19.3271 18.0084 18.0084C19.331 17.5976 20.5379 17.0775 21.5845 16.4998C20.7428 18.4168 19.3041 20.0106 17.5105 21.0604ZM15.3158 3.32759C15.4675 3.57764 15.6181 3.84141 15.7661 4.11816C15.7892 4.16143 15.8117 4.20513 15.8346 4.24883C15.9576 4.4834 16.0783 4.72739 16.1964 4.97969C16.2841 5.16836 16.3711 5.35771 16.4527 5.55093C16.4894 5.63657 16.5249 5.72451 16.5607 5.81187C16.6778 6.10103 16.7905 6.39263 16.8926 6.68867C15.6551 6.38755 14.3407 6.19546 12.9815 6.15693C12.9812 6.15693 12.9808 6.15693 12.9804 6.15693V2.58081C12.9808 2.58081 12.9812 2.58081 12.9815 2.58081C13.6941 2.61309 14.3875 2.72217 15.0487 2.90181C15.1268 3.02163 15.2049 3.14575 15.2828 3.273C15.2938 3.29111 15.305 3.30947 15.3158 3.32759ZM12.9805 7.11997C12.9809 7.11997 12.9812 7.11997 12.9816 7.11997C14.5031 7.16499 15.9348 7.40894 17.238 7.77476C17.5913 9.04868 17.8305 10.4536 17.8816 11.9391C17.8823 11.966 17.8854 11.9929 17.8862 12.02H12.9805V7.11997ZM12.9805 17.8862V12.9829H17.7341L17.8864 12.9831C17.8414 14.5104 17.5976 15.9416 17.238 17.238C15.9584 17.5911 14.5534 17.8303 13.0625 17.8814C13.0352 17.8823 13.0077 17.8854 12.9805 17.8862ZM21.575 8.49531C20.5307 7.92598 19.3271 7.40127 18.0084 6.9979C17.6041 5.67534 17.0777 4.46206 16.4998 3.41553C18.4155 4.25664 20.0081 5.69385 21.0581 7.48599C21.2467 7.81172 21.4233 8.1457 21.575 8.49531ZM12.9805 22.4186V18.8496C12.9809 18.8496 12.9812 18.8496 12.9816 18.8496C14.1592 18.8162 15.2998 18.6621 16.3895 18.4272C16.5584 18.392 16.7274 18.3605 16.8962 18.3212C16.8312 18.5047 16.7643 18.685 16.6956 18.8621C16.6948 18.864 16.694 18.8659 16.6933 18.868C16.5569 19.219 16.4133 19.557 16.2647 19.8816C16.2599 19.8918 16.2554 19.9024 16.2506 19.9127C16.1109 20.2161 15.9667 20.5061 15.8201 20.7841C15.802 20.8185 15.7842 20.853 15.7659 20.8872C15.6356 21.13 15.5033 21.3609 15.3701 21.5828C15.3243 21.6588 15.2784 21.7348 15.2316 21.8093C15.1708 21.9072 15.1098 22.005 15.0487 22.0981C14.4039 22.2734 13.7283 22.3802 13.0342 22.4153C13.0163 22.4161 12.9986 22.418 12.9805 22.4186ZM12.0173 22.419C11.3051 22.3868 10.6121 22.2779 9.95122 22.0982C9.8728 21.9786 9.79443 21.8546 9.71621 21.7274C9.7063 21.7112 9.69658 21.6948 9.68667 21.6786C9.52798 21.4184 9.37021 21.1435 9.21553 20.8535C9.2144 20.8514 9.21343 20.8495 9.21231 20.8473C9.05264 20.5475 8.89585 20.2322 8.74463 19.9026C8.74429 19.9019 8.74409 19.9013 8.7437 19.9005C8.51577 19.4039 8.29946 18.8748 8.10225 18.3167C9.34106 18.6184 10.6569 18.8109 12.0174 18.8494V22.2803L12.0173 22.419ZM3.41553 16.4997C4.46211 17.0774 5.66904 17.5976 6.9916 18.0084C7.3269 19.0881 7.7376 20.0851 8.19058 20.9863C8.28916 21.186 8.38721 21.3861 8.49116 21.5799C6.2292 20.5839 4.40942 18.763 3.41553 16.4997ZM3.18564 15.2287C3.0897 15.1687 2.99336 15.1088 2.90181 15.0488C2.72231 14.3879 2.61323 13.695 2.58101 12.9829H6.15063C6.18403 14.1546 6.33813 15.294 6.57295 16.3832C6.60801 16.5521 6.6395 16.7209 6.67896 16.8897C6.498 16.8264 6.31982 16.761 6.14492 16.6938C6.13877 16.6914 6.13271 16.6891 6.12661 16.6868C5.7814 16.5537 5.44893 16.4133 5.12964 16.268C5.11362 16.2607 5.09761 16.2537 5.08179 16.2464C4.78423 16.11 4.49985 15.9689 4.22671 15.8252C4.18721 15.8046 4.14775 15.7842 4.10864 15.7632C3.87002 15.6354 3.64326 15.5055 3.42505 15.3747C3.34453 15.3265 3.2644 15.278 3.18564 15.2287ZM3.3291 9.68838C3.58604 9.53203 3.85684 9.37676 4.14277 9.22437C4.14888 9.22114 4.15518 9.21787 4.16143 9.21465C4.45708 9.05767 4.76738 8.90376 5.09199 8.75518C5.09814 8.75234 5.1042 8.74961 5.1103 8.74697C5.4355 8.59858 5.77466 8.45532 6.12676 8.31973C6.13267 8.31729 6.13896 8.31494 6.14502 8.3127C6.32129 8.24497 6.50078 8.179 6.6833 8.11509C6.38154 9.3543 6.18892 10.6639 6.15039 12.0185C6.15039 12.0191 6.15039 12.0194 6.15039 12.02H3.20815L2.58101 12.0183C2.61309 11.3057 2.72217 10.6189 2.90181 9.95781C3.01968 9.88037 3.14214 9.80313 3.26743 9.72607C3.28809 9.71338 3.30869 9.70098 3.3291 9.68838ZM8.72173 5.14907C8.73184 5.12715 8.74136 5.10483 8.75171 5.08291C8.88599 4.79146 9.02485 4.51245 9.16616 4.2439C9.18926 4.2002 9.21177 4.1563 9.2352 4.11284C9.36338 3.87407 9.49365 3.64668 9.62471 3.42793C9.67183 3.34932 9.71895 3.27114 9.76699 3.1939C9.82842 3.09507 9.88984 2.99609 9.95127 2.90186C10.6122 2.72222 11.3053 2.61328 12.0175 2.58105V6.15693C10.8388 6.19033 9.69722 6.34482 8.60679 6.58018C8.43911 6.61509 8.27148 6.64619 8.104 6.6853C8.16675 6.50561 8.23179 6.32915 8.29854 6.15562C8.30176 6.14702 8.30503 6.13862 8.30845 6.13008C8.43965 5.79053 8.57812 5.46377 8.72173 5.14907ZM7.11362 12.0182C7.15845 10.5032 7.40239 9.07153 7.76196 7.77476C9.06489 7.40894 10.4963 7.16499 12.0174 7.11997V12.0199H7.93667L7.11362 12.0182ZM8.50029 3.41553C7.92256 4.46211 7.39595 5.67534 6.9916 6.9979C5.90176 7.3313 4.89658 7.74956 3.98887 8.20522C3.79834 8.29927 3.60723 8.39175 3.42012 8.49131C4.41611 6.2292 6.23701 4.40923 8.50029 3.41553ZM12.0173 17.8864C10.4961 17.8414 9.06489 17.5974 7.76196 17.238C7.40264 15.9416 7.15869 14.5104 7.11362 12.9829H12.0104H12.0174V17.7488L12.0173 17.8864Z" fill="#374149"/>
</svg>
