<svg width="30" height="13" viewBox="0 0 30 13" fill="none" xmlns="http://www.w3.org/2000/svg">
<path d="M30 2.33889V0.472383C30 0.211875 29.7889 0 29.5274 0H0.471504C0.210996 0 0 0.211933 0 0.472383V2.34375C0.184922 2.3632 0.351094 2.44652 0.476074 2.57145C0.619863 2.71523 0.708633 2.91316 0.708633 3.13266C0.708633 3.54258 0.397793 3.87973 0 3.92162V6.67805C0.184922 6.69773 0.351094 6.78082 0.476074 6.90574C0.619863 7.04977 0.708633 7.24769 0.708633 7.46695C0.708633 7.87594 0.397793 8.21402 0 8.25592V10.7397C0 11.0002 0.211055 11.2121 0.471504 11.2121H0.641309V12.5153V12.5194V12.5288H17.6129V11.212V9.89549V9.6426C17.6129 9.36334 17.839 9.13746 18.1181 9.13746C18.2572 9.13746 18.3833 9.1933 18.4749 9.28482C18.5655 9.37635 18.6223 9.50338 18.6223 9.6426V9.89549V11.212V12.5153V12.5194V12.5287H28.9764V11.212H29.5273C29.7889 11.212 29.9999 11 29.9999 10.7396V8.26072C29.5618 8.26072 29.2062 7.90506 29.2062 7.46701C29.2062 7.24775 29.295 7.04977 29.4387 6.9058C29.5825 6.76207 29.7814 6.67348 29.9999 6.67348V3.92648C29.5618 3.92648 29.2062 3.57146 29.2062 3.13271C29.2062 2.91322 29.295 2.71523 29.4387 2.5715C29.5825 2.42771 29.7814 2.33889 30 2.33889ZM26.3621 10.7361V11.2121V11.6885H25.008V11.2121V10.7361H26.3621ZM28.1362 10.7361V11.2121V11.6885H26.9225V11.2121V10.7361H28.1362ZM24.448 10.7361V11.2121V11.6885H23.0939V11.2121V10.7361H24.448ZM24.291 8.37474V2.70123H27.8205V8.36672V8.37474H24.2924H24.291ZM23.0305 8.37474H19.5023H19.501V2.70123H23.0306V8.36672V8.37474H23.0305ZM22.5339 10.7361V11.2121V11.6885H21.1807V11.2121V10.7361H22.5339ZM20.6204 10.7361V11.2121V11.6885H19.2666V11.2121V10.7361H20.6204ZM14.9546 10.7361V11.2121V11.6885H13.4896V11.2121V10.7361H14.9546ZM16.9556 10.7361V11.2121V11.6885H15.515V11.2121V10.7361H16.9556ZM12.9293 10.7361V11.2121V11.6885H11.4652V11.2121V10.7361H12.9293ZM12.6773 8.37474V2.70123H16.2057V8.36672V8.37474H12.6787H12.6773ZM11.0722 8.37474H7.54395H7.54254V2.70123H11.0721V8.36672V8.37474H11.0722ZM10.9051 10.7361V11.2121V11.6885H9.44004V11.2121V10.7361H10.9051ZM8.87971 10.7361V11.2121V11.6885H7.41574V11.2121V10.7361H8.87971ZM4.83105 10.7361V11.2121V11.6885H3.36598V11.2121V10.7361H4.83105ZM6.85547 10.7361V11.2121V11.6885H5.39133V11.2121V10.7361H6.85547ZM2.80582 10.7361V11.2121V11.6885H1.48178V11.2121V10.7361H2.80582ZM2.40902 8.37474V2.70123H5.93859V8.36672V8.37474H2.41037H2.40902Z" fill="#374149"/>
<path d="M2.85551 3.17334H2.84754H2.83817V7.87871V7.89313V7.9025H4.17363L5.50939 5.53795V3.17334H2.85551Z" fill="#374149"/>
<path d="M7.98932 3.17334H7.98111H7.97168V7.87871V7.89313V7.9025H9.3075L10.643 5.53795V3.17334H7.98932Z" fill="#374149"/>
<path d="M13.1239 3.17334H13.1159H13.1064V7.87871L13.1063 7.89313H13.1064V7.9025H14.442L15.7768 5.53795V3.17334H13.1239Z" fill="#374149"/>
<path d="M19.9478 3.17334H19.9395H19.9301V7.9025H21.2659L22.6014 5.53795V3.17334H19.9478Z" fill="#374149"/>
<path d="M24.7378 3.17334H24.7295H24.7201V7.87871V7.89313V7.9025H26.0559L27.3915 5.53795V3.17334H24.7378Z" fill="#374149"/>
</svg>
